<?xml version="1.0" encoding="UTF-8" standalone="no"?>
<!DOCTYPE svg PUBLIC "-//W3C//DTD SVG 1.1//EN"
 "http://www.w3.org/Graphics/SVG/1.1/DTD/svg11.dtd">
<!-- Generated by graphviz version 2.38.0 (20140413.2041)
 -->
<!-- Title: controllers_diagram Pages: 1 -->
<svg width="659pt" height="735pt"
 viewBox="0.00 0.00 659.00 734.50" xmlns="http://www.w3.org/2000/svg" xmlns:xlink="http://www.w3.org/1999/xlink">
<g id="graph0" class="graph" transform="scale(1 1) rotate(0) translate(258.5 458.5)">
<title>controllers_diagram</title>
<polygon fill="none" stroke="none" points="-258.5,276 -258.5,-458.5 400.5,-458.5 400.5,276 -258.5,276"/>
<!-- _diagram_info -->
<g id="node1" class="node"><title>_diagram_info</title>
<text text-anchor="start" x="-111" y="-199.6" font-family="Times,serif" font-size="13.00">Controllers diagram</text>
<text text-anchor="start" x="-111" y="-185.6" font-family="Times,serif" font-size="13.00">Date: Nov 05 2017 &#45; 23:01</text>
<text text-anchor="start" x="-111" y="-171.6" font-family="Times,serif" font-size="13.00">Migration version: 20171103000317</text>
<text text-anchor="start" x="-111" y="-157.6" font-family="Times,serif" font-size="13.00">Generated by RailRoady 1.5.3</text>
<text text-anchor="start" x="-111" y="-143.6" font-family="Times,serif" font-size="13.00">http://railroady.prestonlee.com</text>
</g>
<!-- SessionsController -->
<g id="node2" class="node"><title>SessionsController</title>
<path fill="none" stroke="black" d="M-242.5,254.5C-242.5,254.5 -147.5,254.5 -147.5,254.5 -141.5,254.5 -135.5,248.5 -135.5,242.5 -135.5,242.5 -135.5,113.5 -135.5,113.5 -135.5,107.5 -141.5,101.5 -147.5,101.5 -147.5,101.5 -242.5,101.5 -242.5,101.5 -248.5,101.5 -254.5,107.5 -254.5,113.5 -254.5,113.5 -254.5,242.5 -254.5,242.5 -254.5,248.5 -248.5,254.5 -242.5,254.5"/>
<text text-anchor="middle" x="-195" y="116.7" font-family="Times,serif" font-size="14.00">SessionsController</text>
<polyline fill="none" stroke="black" points="-254.5,124.5 -135.5,124.5 "/>
<text text-anchor="start" x="-246.5" y="139.7" font-family="Times,serif" font-size="14.00">create</text>
<text text-anchor="start" x="-246.5" y="154.7" font-family="Times,serif" font-size="14.00">current_user</text>
<text text-anchor="start" x="-246.5" y="169.7" font-family="Times,serif" font-size="14.00">current_user?</text>
<text text-anchor="start" x="-246.5" y="184.7" font-family="Times,serif" font-size="14.00">destroy</text>
<text text-anchor="start" x="-246.5" y="199.7" font-family="Times,serif" font-size="14.00">new</text>
<polyline fill="none" stroke="black" points="-254.5,207.5 -135.5,207.5 "/>
<polyline fill="none" stroke="black" points="-254.5,231.5 -135.5,231.5 "/>
<text text-anchor="start" x="-246.5" y="246.7" font-family="Times,serif" font-size="14.00">_layout</text>
</g>
<!-- CommentsController -->
<g id="node3" class="node"><title>CommentsController</title>
<path fill="none" stroke="black" d="M-226,68C-226,68 -118,68 -118,68 -112,68 -106,62 -106,56 -106,56 -106,-88 -106,-88 -106,-94 -112,-100 -118,-100 -118,-100 -226,-100 -226,-100 -232,-100 -238,-94 -238,-88 -238,-88 -238,56 -238,56 -238,62 -232,68 -226,68"/>
<text text-anchor="middle" x="-172" y="-84.8" font-family="Times,serif" font-size="14.00">CommentsController</text>
<polyline fill="none" stroke="black" points="-238,-77 -106,-77 "/>
<text text-anchor="start" x="-230" y="-61.8" font-family="Times,serif" font-size="14.00">create</text>
<text text-anchor="start" x="-230" y="-46.8" font-family="Times,serif" font-size="14.00">downvote</text>
<text text-anchor="start" x="-230" y="-31.8" font-family="Times,serif" font-size="14.00">score</text>
<text text-anchor="start" x="-230" y="-16.8" font-family="Times,serif" font-size="14.00">update</text>
<text text-anchor="start" x="-230" y="-1.8" font-family="Times,serif" font-size="14.00">upvote</text>
<polyline fill="none" stroke="black" points="-238,6 -106,6 "/>
<polyline fill="none" stroke="black" points="-238,30 -106,30 "/>
<text text-anchor="start" x="-230" y="45.2" font-family="Times,serif" font-size="14.00">_layout</text>
<text text-anchor="start" x="-230" y="60.2" font-family="Times,serif" font-size="14.00">comment_params</text>
</g>
<!-- UsersController -->
<g id="node4" class="node"><title>UsersController</title>
<path fill="none" stroke="black" d="M148.5,-137C148.5,-137 227.5,-137 227.5,-137 233.5,-137 239.5,-143 239.5,-149 239.5,-149 239.5,-353 239.5,-353 239.5,-359 233.5,-365 227.5,-365 227.5,-365 148.5,-365 148.5,-365 142.5,-365 136.5,-359 136.5,-353 136.5,-353 136.5,-149 136.5,-149 136.5,-143 142.5,-137 148.5,-137"/>
<text text-anchor="middle" x="188" y="-349.8" font-family="Times,serif" font-size="14.00">UsersController</text>
<polyline fill="none" stroke="black" points="136.5,-342 239.5,-342 "/>
<text text-anchor="start" x="144.5" y="-326.8" font-family="Times,serif" font-size="14.00">create</text>
<text text-anchor="start" x="144.5" y="-311.8" font-family="Times,serif" font-size="14.00">destroy</text>
<text text-anchor="start" x="144.5" y="-296.8" font-family="Times,serif" font-size="14.00">edit</text>
<text text-anchor="start" x="144.5" y="-281.8" font-family="Times,serif" font-size="14.00">index</text>
<text text-anchor="start" x="144.5" y="-266.8" font-family="Times,serif" font-size="14.00">new</text>
<text text-anchor="start" x="144.5" y="-251.8" font-family="Times,serif" font-size="14.00">show</text>
<text text-anchor="start" x="144.5" y="-236.8" font-family="Times,serif" font-size="14.00">update</text>
<polyline fill="none" stroke="black" points="136.5,-229 239.5,-229 "/>
<polyline fill="none" stroke="black" points="136.5,-205 239.5,-205 "/>
<text text-anchor="start" x="144.5" y="-189.8" font-family="Times,serif" font-size="14.00">_layout</text>
<text text-anchor="start" x="144.5" y="-174.8" font-family="Times,serif" font-size="14.00">admin_user</text>
<text text-anchor="start" x="144.5" y="-159.8" font-family="Times,serif" font-size="14.00">correct_user</text>
<text text-anchor="start" x="144.5" y="-144.8" font-family="Times,serif" font-size="14.00">user_params</text>
</g>
<!-- PostsController -->
<g id="node5" class="node"><title>PostsController</title>
<path fill="none" stroke="black" d="M12.5,-256C12.5,-256 89.5,-256 89.5,-256 95.5,-256 101.5,-262 101.5,-268 101.5,-268 101.5,-442 101.5,-442 101.5,-448 95.5,-454 89.5,-454 89.5,-454 12.5,-454 12.5,-454 6.5,-454 0.5,-448 0.5,-442 0.5,-442 0.5,-268 0.5,-268 0.5,-262 6.5,-256 12.5,-256"/>
<text text-anchor="middle" x="51" y="-438.8" font-family="Times,serif" font-size="14.00">PostsController</text>
<polyline fill="none" stroke="black" points="0.5,-431 101.5,-431 "/>
<text text-anchor="start" x="8.5" y="-415.8" font-family="Times,serif" font-size="14.00">create</text>
<text text-anchor="start" x="8.5" y="-400.8" font-family="Times,serif" font-size="14.00">destroy</text>
<text text-anchor="start" x="8.5" y="-385.8" font-family="Times,serif" font-size="14.00">edit</text>
<text text-anchor="start" x="8.5" y="-370.8" font-family="Times,serif" font-size="14.00">index</text>
<text text-anchor="start" x="8.5" y="-355.8" font-family="Times,serif" font-size="14.00">new</text>
<text text-anchor="start" x="8.5" y="-340.8" font-family="Times,serif" font-size="14.00">show</text>
<text text-anchor="start" x="8.5" y="-325.8" font-family="Times,serif" font-size="14.00">update</text>
<polyline fill="none" stroke="black" points="0.5,-318 101.5,-318 "/>
<polyline fill="none" stroke="black" points="0.5,-294 101.5,-294 "/>
<text text-anchor="start" x="8.5" y="-278.8" font-family="Times,serif" font-size="14.00">_layout</text>
<text text-anchor="start" x="8.5" y="-263.8" font-family="Times,serif" font-size="14.00">post_params</text>
</g>
<!-- MicropostsController -->
<g id="node6" class="node"><title>MicropostsController</title>
<path fill="none" stroke="black" d="M-56,118C-56,118 54,118 54,118 60,118 66,112 66,106 66,106 66,-98 66,-98 66,-104 60,-110 54,-110 54,-110 -56,-110 -56,-110 -62,-110 -68,-104 -68,-98 -68,-98 -68,106 -68,106 -68,112 -62,118 -56,118"/>
<text text-anchor="middle" x="-1" y="-94.8" font-family="Times,serif" font-size="14.00">MicropostsController</text>
<polyline fill="none" stroke="black" points="-68,-87 66,-87 "/>
<text text-anchor="start" x="-60" y="-71.8" font-family="Times,serif" font-size="14.00">correct_user</text>
<text text-anchor="start" x="-60" y="-56.8" font-family="Times,serif" font-size="14.00">create</text>
<text text-anchor="start" x="-60" y="-41.8" font-family="Times,serif" font-size="14.00">destroy</text>
<text text-anchor="start" x="-60" y="-26.8" font-family="Times,serif" font-size="14.00">downvote</text>
<text text-anchor="start" x="-60" y="-11.8" font-family="Times,serif" font-size="14.00">new</text>
<text text-anchor="start" x="-60" y="3.2" font-family="Times,serif" font-size="14.00">score</text>
<text text-anchor="start" x="-60" y="18.2" font-family="Times,serif" font-size="14.00">show</text>
<text text-anchor="start" x="-60" y="33.2" font-family="Times,serif" font-size="14.00">upvote</text>
<polyline fill="none" stroke="black" points="-68,41 66,41 "/>
<polyline fill="none" stroke="black" points="-68,65 66,65 "/>
<text text-anchor="start" x="-60" y="80.2" font-family="Times,serif" font-size="14.00">_layout</text>
<text text-anchor="start" x="-60" y="95.2" font-family="Times,serif" font-size="14.00">micropost_params</text>
<text text-anchor="start" x="-60" y="110.2" font-family="Times,serif" font-size="14.00">require_permission</text>
</g>
<!-- ApplicationController -->
<g id="node7" class="node"><title>ApplicationController</title>
<path fill="none" stroke="black" d="M-158,-255.5C-158,-255.5 -46,-255.5 -46,-255.5 -40,-255.5 -34,-261.5 -34,-267.5 -34,-267.5 -34,-352.5 -34,-352.5 -34,-358.5 -40,-364.5 -46,-364.5 -46,-364.5 -158,-364.5 -158,-364.5 -164,-364.5 -170,-358.5 -170,-352.5 -170,-352.5 -170,-267.5 -170,-267.5 -170,-261.5 -164,-255.5 -158,-255.5"/>
<text text-anchor="middle" x="-102" y="-349.3" font-family="Times,serif" font-size="14.00">ApplicationController</text>
<polyline fill="none" stroke="black" points="-170,-341.5 -34,-341.5 "/>
<polyline fill="none" stroke="black" points="-170,-317.5 -34,-317.5 "/>
<polyline fill="none" stroke="black" points="-170,-293.5 -34,-293.5 "/>
<text text-anchor="start" x="-162" y="-278.3" font-family="Times,serif" font-size="14.00">_layout</text>
<text text-anchor="start" x="-162" y="-263.3" font-family="Times,serif" font-size="14.00">logged_in_user</text>
</g>
<!-- PasswordResetsController -->
<g id="node8" class="node"><title>PasswordResetsController</title>
<path fill="none" stroke="black" d="M113.5,101C113.5,101 248.5,101 248.5,101 254.5,101 260.5,95 260.5,89 260.5,89 260.5,-85 260.5,-85 260.5,-91 254.5,-97 248.5,-97 248.5,-97 113.5,-97 113.5,-97 107.5,-97 101.5,-91 101.5,-85 101.5,-85 101.5,89 101.5,89 101.5,95 107.5,101 113.5,101"/>
<text text-anchor="middle" x="181" y="-81.8" font-family="Times,serif" font-size="14.00">PasswordResetsController</text>
<polyline fill="none" stroke="black" points="101.5,-74 260.5,-74 "/>
<text text-anchor="start" x="109.5" y="-58.8" font-family="Times,serif" font-size="14.00">create</text>
<text text-anchor="start" x="109.5" y="-43.8" font-family="Times,serif" font-size="14.00">edit</text>
<text text-anchor="start" x="109.5" y="-28.8" font-family="Times,serif" font-size="14.00">new</text>
<text text-anchor="start" x="109.5" y="-13.8" font-family="Times,serif" font-size="14.00">update</text>
<polyline fill="none" stroke="black" points="101.5,-6 260.5,-6 "/>
<polyline fill="none" stroke="black" points="101.5,18 260.5,18 "/>
<text text-anchor="start" x="109.5" y="33.2" font-family="Times,serif" font-size="14.00">_layout</text>
<text text-anchor="start" x="109.5" y="48.2" font-family="Times,serif" font-size="14.00">check_expiration</text>
<text text-anchor="start" x="109.5" y="63.2" font-family="Times,serif" font-size="14.00">get_user</text>
<text text-anchor="start" x="109.5" y="78.2" font-family="Times,serif" font-size="14.00">user_params</text>
<text text-anchor="start" x="109.5" y="93.2" font-family="Times,serif" font-size="14.00">valid_user</text>
</g>
<!-- PlaylistsController -->
<g id="node9" class="node"><title>PlaylistsController</title>
<path fill="none" stroke="black" d="M-90,271.5C-90,271.5 4,271.5 4,271.5 10,271.5 16,265.5 16,259.5 16,259.5 16,160.5 16,160.5 16,154.5 10,148.5 4,148.5 4,148.5 -90,148.5 -90,148.5 -96,148.5 -102,154.5 -102,160.5 -102,160.5 -102,259.5 -102,259.5 -102,265.5 -96,271.5 -90,271.5"/>
<text text-anchor="middle" x="-43" y="163.7" font-family="Times,serif" font-size="14.00">PlaylistsController</text>
<polyline fill="none" stroke="black" points="-102,171.5 16,171.5 "/>
<text text-anchor="start" x="-94" y="186.7" font-family="Times,serif" font-size="14.00">addpost</text>
<text text-anchor="start" x="-94" y="201.7" font-family="Times,serif" font-size="14.00">create</text>
<text text-anchor="start" x="-94" y="216.7" font-family="Times,serif" font-size="14.00">show</text>
<polyline fill="none" stroke="black" points="-102,224.5 16,224.5 "/>
<polyline fill="none" stroke="black" points="-102,248.5 16,248.5 "/>
<text text-anchor="start" x="-94" y="263.7" font-family="Times,serif" font-size="14.00">_layout</text>
</g>
<!-- StaticPagesController -->
<g id="node10" class="node"><title>StaticPagesController</title>
<path fill="none" stroke="black" d="M114,254.5C114,254.5 224,254.5 224,254.5 230,254.5 236,248.5 236,242.5 236,242.5 236,143.5 236,143.5 236,137.5 230,131.5 224,131.5 224,131.5 114,131.5 114,131.5 108,131.5 102,137.5 102,143.5 102,143.5 102,242.5 102,242.5 102,248.5 108,254.5 114,254.5"/>
<text text-anchor="middle" x="169" y="146.7" font-family="Times,serif" font-size="14.00">StaticPagesController</text>
<polyline fill="none" stroke="black" points="102,154.5 236,154.5 "/>
<text text-anchor="start" x="110" y="169.7" font-family="Times,serif" font-size="14.00">about</text>
<text text-anchor="start" x="110" y="184.7" font-family="Times,serif" font-size="14.00">help</text>
<text text-anchor="start" x="110" y="199.7" font-family="Times,serif" font-size="14.00">home</text>
<polyline fill="none" stroke="black" points="102,207.5 236,207.5 "/>
<polyline fill="none" stroke="black" points="102,231.5 236,231.5 "/>
<text text-anchor="start" x="110" y="246.7" font-family="Times,serif" font-size="14.00">_layout</text>
</g>
<!-- WelcomeController -->
<g id="node11" class="node"><title>WelcomeController</title>
<path fill="none" stroke="black" d="M283.5,271.5C283.5,271.5 384.5,271.5 384.5,271.5 390.5,271.5 396.5,265.5 396.5,259.5 396.5,259.5 396.5,190.5 396.5,190.5 396.5,184.5 390.5,178.5 384.5,178.5 384.5,178.5 283.5,178.5 283.5,178.5 277.5,178.5 271.5,184.5 271.5,190.5 271.5,190.5 271.5,259.5 271.5,259.5 271.5,265.5 277.5,271.5 283.5,271.5"/>
<text text-anchor="middle" x="334" y="193.7" font-family="Times,serif" font-size="14.00">WelcomeController</text>
<polyline fill="none" stroke="black" points="271.5,201.5 396.5,201.5 "/>
<text text-anchor="start" x="279.5" y="216.7" font-family="Times,serif" font-size="14.00">index</text>
<polyline fill="none" stroke="black" points="271.5,224.5 396.5,224.5 "/>
<polyline fill="none" stroke="black" points="271.5,248.5 396.5,248.5 "/>
<text text-anchor="start" x="279.5" y="263.7" font-family="Times,serif" font-size="14.00">_layout</text>
</g>
</g>
</svg>
