<?xml version="1.0" encoding="UTF-8" standalone="no"?>
<!DOCTYPE svg PUBLIC "-//W3C//DTD SVG 1.1//EN"
 "http://www.w3.org/Graphics/SVG/1.1/DTD/svg11.dtd">
<!-- Generated by graphviz version 2.38.0 (20140413.2041)
 -->
<!-- Title: models_diagram Pages: 1 -->
<svg width="893pt" height="498pt"
 viewBox="0.00 0.00 892.50 498.00" xmlns="http://www.w3.org/2000/svg" xmlns:xlink="http://www.w3.org/1999/xlink">
<g id="graph0" class="graph" transform="scale(1 1) rotate(0) translate(4 494)">
<title>models_diagram</title>
<polygon fill="none" stroke="none" points="-4,4 -4,-494 888.5,-494 888.5,4 -4,4"/>
<!-- _diagram_info -->
<g id="node1" class="node"><title>_diagram_info</title>
<text text-anchor="start" x="8" y="-423.6" font-family="Times,serif" font-size="13.00">Models diagram</text>
<text text-anchor="start" x="8" y="-409.6" font-family="Times,serif" font-size="13.00">Date: Nov 05 2017 &#45; 23:01</text>
<text text-anchor="start" x="8" y="-395.6" font-family="Times,serif" font-size="13.00">Migration version: 20171103000317</text>
<text text-anchor="start" x="8" y="-381.6" font-family="Times,serif" font-size="13.00">Generated by RailRoady 1.5.3</text>
<text text-anchor="start" x="8" y="-367.6" font-family="Times,serif" font-size="13.00">http://railroady.prestonlee.com</text>
</g>
<!-- ApplicationRecord -->
<g id="node2" class="node"><title>ApplicationRecord</title>
<ellipse fill="none" stroke="black" cx="309" cy="-399" rx="77.1866" ry="18"/>
<text text-anchor="middle" x="309" y="-395.3" font-family="Times,serif" font-size="14.00">ApplicationRecord</text>
</g>
<!-- Comment -->
<g id="node3" class="node"><title>Comment</title>
<path fill="none" stroke="black" d="M377.5,-23C377.5,-23 544.5,-23 544.5,-23 550.5,-23 556.5,-29 556.5,-35 556.5,-35 556.5,-237 556.5,-237 556.5,-243 550.5,-249 544.5,-249 544.5,-249 377.5,-249 377.5,-249 371.5,-249 365.5,-243 365.5,-237 365.5,-237 365.5,-35 365.5,-35 365.5,-29 371.5,-23 377.5,-23"/>
<text text-anchor="middle" x="461" y="-233.8" font-family="Times,serif" font-size="14.00">Comment</text>
<polyline fill="none" stroke="black" points="365.5,-226 556.5,-226 "/>
<text text-anchor="start" x="373.5" y="-210.8" font-family="Times,serif" font-size="14.00">id :INTEGER</text>
<text text-anchor="start" x="373.5" y="-195.8" font-family="Times,serif" font-size="14.00">user_id :integer</text>
<text text-anchor="start" x="373.5" y="-180.8" font-family="Times,serif" font-size="14.00">body :text</text>
<text text-anchor="start" x="373.5" y="-165.8" font-family="Times,serif" font-size="14.00">micropost_id :integer</text>
<text text-anchor="start" x="373.5" y="-150.8" font-family="Times,serif" font-size="14.00">created_at :datetime</text>
<text text-anchor="start" x="373.5" y="-135.8" font-family="Times,serif" font-size="14.00">updated_at :datetime</text>
<text text-anchor="start" x="373.5" y="-120.8" font-family="Times,serif" font-size="14.00">cached_votes_score :integer</text>
<text text-anchor="start" x="373.5" y="-105.8" font-family="Times,serif" font-size="14.00">cached_votes_total :integer</text>
<text text-anchor="start" x="373.5" y="-90.8" font-family="Times,serif" font-size="14.00">cached_votes_up :integer</text>
<text text-anchor="start" x="373.5" y="-75.8" font-family="Times,serif" font-size="14.00">cached_votes_down :integer</text>
<text text-anchor="start" x="373.5" y="-60.8" font-family="Times,serif" font-size="14.00">cached_weighted_score :integer</text>
<text text-anchor="start" x="373.5" y="-45.8" font-family="Times,serif" font-size="14.00">cached_weighted_total :integer</text>
<text text-anchor="start" x="373.5" y="-30.8" font-family="Times,serif" font-size="14.00">cached_weighted_average :float</text>
</g>
<!-- Post -->
<g id="node4" class="node"><title>Post</title>
<path fill="none" stroke="black" d="M765.5,-338.5C765.5,-338.5 872.5,-338.5 872.5,-338.5 878.5,-338.5 884.5,-344.5 884.5,-350.5 884.5,-350.5 884.5,-447.5 884.5,-447.5 884.5,-453.5 878.5,-459.5 872.5,-459.5 872.5,-459.5 765.5,-459.5 765.5,-459.5 759.5,-459.5 753.5,-453.5 753.5,-447.5 753.5,-447.5 753.5,-350.5 753.5,-350.5 753.5,-344.5 759.5,-338.5 765.5,-338.5"/>
<text text-anchor="middle" x="819" y="-444.3" font-family="Times,serif" font-size="14.00">Post</text>
<polyline fill="none" stroke="black" points="753.5,-436.5 884.5,-436.5 "/>
<text text-anchor="start" x="761.5" y="-421.3" font-family="Times,serif" font-size="14.00">id :INTEGER</text>
<text text-anchor="start" x="761.5" y="-406.3" font-family="Times,serif" font-size="14.00">title :varchar</text>
<text text-anchor="start" x="761.5" y="-391.3" font-family="Times,serif" font-size="14.00">text :text</text>
<text text-anchor="start" x="761.5" y="-376.3" font-family="Times,serif" font-size="14.00">score :decimal</text>
<text text-anchor="start" x="761.5" y="-361.3" font-family="Times,serif" font-size="14.00">created_at :datetime</text>
<text text-anchor="start" x="761.5" y="-346.3" font-family="Times,serif" font-size="14.00">updated_at :datetime</text>
</g>
<!-- Micropost -->
<g id="node5" class="node"><title>Micropost</title>
<path fill="none" stroke="black" d="M586.5,-0.5C586.5,-0.5 753.5,-0.5 753.5,-0.5 759.5,-0.5 765.5,-6.5 765.5,-12.5 765.5,-12.5 765.5,-259.5 765.5,-259.5 765.5,-265.5 759.5,-271.5 753.5,-271.5 753.5,-271.5 586.5,-271.5 586.5,-271.5 580.5,-271.5 574.5,-265.5 574.5,-259.5 574.5,-259.5 574.5,-12.5 574.5,-12.5 574.5,-6.5 580.5,-0.5 586.5,-0.5"/>
<text text-anchor="middle" x="670" y="-256.3" font-family="Times,serif" font-size="14.00">Micropost</text>
<polyline fill="none" stroke="black" points="574.5,-248.5 765.5,-248.5 "/>
<text text-anchor="start" x="582.5" y="-233.3" font-family="Times,serif" font-size="14.00">id :INTEGER</text>
<text text-anchor="start" x="582.5" y="-218.3" font-family="Times,serif" font-size="14.00">content :text</text>
<text text-anchor="start" x="582.5" y="-203.3" font-family="Times,serif" font-size="14.00">user_id :integer</text>
<text text-anchor="start" x="582.5" y="-188.3" font-family="Times,serif" font-size="14.00">created_at :datetime</text>
<text text-anchor="start" x="582.5" y="-173.3" font-family="Times,serif" font-size="14.00">updated_at :datetime</text>
<text text-anchor="start" x="582.5" y="-158.3" font-family="Times,serif" font-size="14.00">url :varchar</text>
<text text-anchor="start" x="582.5" y="-143.3" font-family="Times,serif" font-size="14.00">title :varchar</text>
<text text-anchor="start" x="582.5" y="-128.3" font-family="Times,serif" font-size="14.00">genre :varchar</text>
<text text-anchor="start" x="582.5" y="-113.3" font-family="Times,serif" font-size="14.00">artist :varchar</text>
<text text-anchor="start" x="582.5" y="-98.3" font-family="Times,serif" font-size="14.00">cached_votes_total :integer</text>
<text text-anchor="start" x="582.5" y="-83.3" font-family="Times,serif" font-size="14.00">cached_votes_score :integer</text>
<text text-anchor="start" x="582.5" y="-68.3" font-family="Times,serif" font-size="14.00">cached_votes_up :integer</text>
<text text-anchor="start" x="582.5" y="-53.3" font-family="Times,serif" font-size="14.00">cached_votes_down :integer</text>
<text text-anchor="start" x="582.5" y="-38.3" font-family="Times,serif" font-size="14.00">cached_weighted_score :integer</text>
<text text-anchor="start" x="582.5" y="-23.3" font-family="Times,serif" font-size="14.00">cached_weighted_total :integer</text>
<text text-anchor="start" x="582.5" y="-8.3" font-family="Times,serif" font-size="14.00">cached_weighted_average :float</text>
</g>
<!-- User -->
<g id="node6" class="node"><title>User</title>
<path fill="none" stroke="black" d="M416,-308.5C416,-308.5 552,-308.5 552,-308.5 558,-308.5 564,-314.5 564,-320.5 564,-320.5 564,-477.5 564,-477.5 564,-483.5 558,-489.5 552,-489.5 552,-489.5 416,-489.5 416,-489.5 410,-489.5 404,-483.5 404,-477.5 404,-477.5 404,-320.5 404,-320.5 404,-314.5 410,-308.5 416,-308.5"/>
<text text-anchor="middle" x="484" y="-474.3" font-family="Times,serif" font-size="14.00">User</text>
<polyline fill="none" stroke="black" points="404,-466.5 564,-466.5 "/>
<text text-anchor="start" x="412" y="-451.3" font-family="Times,serif" font-size="14.00">id :INTEGER</text>
<text text-anchor="start" x="412" y="-436.3" font-family="Times,serif" font-size="14.00">name :varchar</text>
<text text-anchor="start" x="412" y="-421.3" font-family="Times,serif" font-size="14.00">email :varchar</text>
<text text-anchor="start" x="412" y="-406.3" font-family="Times,serif" font-size="14.00">created_at :datetime</text>
<text text-anchor="start" x="412" y="-391.3" font-family="Times,serif" font-size="14.00">updated_at :datetime</text>
<text text-anchor="start" x="412" y="-376.3" font-family="Times,serif" font-size="14.00">password_digest :varchar</text>
<text text-anchor="start" x="412" y="-361.3" font-family="Times,serif" font-size="14.00">remember_digest :varchar</text>
<text text-anchor="start" x="412" y="-346.3" font-family="Times,serif" font-size="14.00">admin :boolean</text>
<text text-anchor="start" x="412" y="-331.3" font-family="Times,serif" font-size="14.00">reset_digest :varchar</text>
<text text-anchor="start" x="412" y="-316.3" font-family="Times,serif" font-size="14.00">reset_sent_at :datetime</text>
</g>
<!-- User&#45;&gt;Comment -->
<g id="edge2" class="edge"><title>User&#45;&gt;Comment</title>
<path fill="none" stroke="#d3f7bd" d="M475.371,-300.083C474.192,-286.705 472.97,-272.839 471.76,-259.097"/>
<ellipse fill="none" stroke="#d3f7bd" cx="475.734" cy="-304.194" rx="4" ry="4"/>
<polygon fill="#d3f7bd" stroke="#d3f7bd" points="471.758,-259.084 475.363,-248.727 471.319,-254.103 470.881,-249.122 470.881,-249.122 470.881,-249.122 471.319,-254.103 466.398,-249.517 471.758,-259.084 471.758,-259.084"/>
</g>
<!-- User&#45;&gt;Micropost -->
<g id="edge1" class="edge"><title>User&#45;&gt;Micropost</title>
<path fill="none" stroke="#6df626" d="M552.834,-301.41C557.877,-294.334 563.022,-287.114 568.204,-279.843"/>
<ellipse fill="none" stroke="#6df626" cx="550.332" cy="-304.921" rx="4.00002" ry="4.00002"/>
<polygon fill="#6df626" stroke="#6df626" points="568.496,-279.434 577.964,-273.902 571.397,-275.362 574.299,-271.29 574.299,-271.29 574.299,-271.29 571.397,-275.362 570.634,-268.678 568.496,-279.434 568.496,-279.434"/>
</g>
<!-- Playlist -->
<g id="node7" class="node"><title>Playlist</title>
<path fill="none" stroke="black" d="M616.5,-346C616.5,-346 723.5,-346 723.5,-346 729.5,-346 735.5,-352 735.5,-358 735.5,-358 735.5,-440 735.5,-440 735.5,-446 729.5,-452 723.5,-452 723.5,-452 616.5,-452 616.5,-452 610.5,-452 604.5,-446 604.5,-440 604.5,-440 604.5,-358 604.5,-358 604.5,-352 610.5,-346 616.5,-346"/>
<text text-anchor="middle" x="670" y="-436.8" font-family="Times,serif" font-size="14.00">Playlist</text>
<polyline fill="none" stroke="black" points="604.5,-429 735.5,-429 "/>
<text text-anchor="start" x="612.5" y="-413.8" font-family="Times,serif" font-size="14.00">id :INTEGER</text>
<text text-anchor="start" x="612.5" y="-398.8" font-family="Times,serif" font-size="14.00">user_id :integer</text>
<text text-anchor="start" x="612.5" y="-383.8" font-family="Times,serif" font-size="14.00">name :varchar</text>
<text text-anchor="start" x="612.5" y="-368.8" font-family="Times,serif" font-size="14.00">created_at :datetime</text>
<text text-anchor="start" x="612.5" y="-353.8" font-family="Times,serif" font-size="14.00">updated_at :datetime</text>
</g>
<!-- Playlist&#45;&gt;Micropost -->
<g id="edge3" class="edge"><title>Playlist&#45;&gt;Micropost</title>
<path fill="none" stroke="#126bd3" d="M670,-335.615C670,-319.137 670,-300.645 670,-281.75"/>
<polygon fill="#126bd3" stroke="#126bd3" points="670,-335.81 665.5,-345.81 670,-340.81 670,-345.81 670,-345.81 670,-345.81 670,-340.81 674.5,-345.81 670,-335.81 670,-335.81"/>
<polygon fill="#126bd3" stroke="#126bd3" points="670,-281.533 674.5,-271.532 670,-276.533 670,-271.533 670,-271.533 670,-271.533 670,-276.533 665.5,-271.533 670,-281.533 670,-281.533"/>
</g>
</g>
</svg>
